<svg width="44" height="45" viewBox="0 0 44 45" fill="none" xmlns="http://www.w3.org/2000/svg">
<rect y="0.5" width="44" height="44" rx="22" fill="#D5D5D5"/>
<path fill-rule="evenodd" clip-rule="evenodd" d="M18 17.5C18 16.4391 18.4214 15.4217 19.1716 14.6716C19.9217 13.9214 20.9391 13.5 22 13.5C23.0609 13.5 24.0783 13.9214 24.8284 14.6716C25.5786 15.4217 26 16.4391 26 17.5C26 18.5609 25.5786 19.5783 24.8284 20.3284C24.0783 21.0786 23.0609 21.5 22 21.5C20.9391 21.5 19.9217 21.0786 19.1716 20.3284C18.4214 19.5783 18 18.5609 18 17.5ZM18 23.5C16.6739 23.5 15.4021 24.0268 14.4645 24.9645C13.5268 25.9021 13 27.1739 13 28.5C13 29.2956 13.3161 30.0587 13.8787 30.6213C14.4413 31.1839 15.2044 31.5 16 31.5H28C28.7956 31.5 29.5587 31.1839 30.1213 30.6213C30.6839 30.0587 31 29.2956 31 28.5C31 27.1739 30.4732 25.9021 29.5355 24.9645C28.5979 24.0268 27.3261 23.5 26 23.5H18Z" fill="black"/>
</svg>
